PathFileType	4	(X/Y/Z) flx_0kg_3.trc																										
DataRate	CameraRate	NumFrames	NumMarkers	Units	OrigDataRate	OrigDataStartFrame	OrigNumFrames																					
100	100	54	9	mm	100	314	835																					
Frame#	Time	gu			centelbow			EpL			centpxt8			centijc7			ij			ts			aa			ai		
		X1	Y1	Z1	X2	Y2	Z2	X3	Y3	Z3	X4	Y4	Z4	X5	Y5	Z5	X6	Y6	Z6	X7	Y7	Z7	X8	Y8	Z8	X9	Y9	Z9  
313	3.13	-95.211	59.703	105.793	8.433	262.817	200.593	-18.197	276.907	189.116	-46.816	-153.158	-8.669	-46.816	31.938	-8.669	0	0	0	-139.922	-21.858	54.38	-126.609	80.598	113.965	-110.552	-75.291	150.129
314	3.14	-95.279	59.661	105.076	6.573	263.756	199.711	-20.089	277.636	188.053	-46.816	-153.158	-8.669	-46.816	31.938	-8.669	0	0	0	-139.626	-21.995	54.079	-127.229	80.712	113.427	-110.259	-74.965	150.086
315	3.15	-95.392	59.73	104.683	4.504	264.83	199.233	-22.175	278.49	187.357	-46.816	-153.158	-8.669	-46.816	31.938	-8.669	0	0	0	-139.337	-21.807	53.782	-127.922	81.135	112.921	-109.968	-74.323	150.038
316	3.16	-95.736	59.757	104.621	2.168	265.816	199.165	-24.513	279.265	187.053	-46.816	-153.158	-8.669	-46.816	31.938	-8.669	0	0	0	-138.854	-21.603	53.694	-128.415	81.562	112.625	-109.513	-73.673	150.2
317	3.17	-96.258	59.439	104.752	-0.215	266.355	199.334	-26.886	279.611	186.992	-46.816	-153.158	-8.669	-46.816	31.938	-8.669	0	0	0	-138.214	-21.775	53.867	-128.691	81.619	112.551	-108.949	-73.386	150.643
318	3.18	-96.589	59.141	104.699	-2.322	266.903	199.214	-28.996	279.965	186.673	-46.816	-153.158	-8.669	-46.816	31.938	-8.669	0	0	0	-137.698	-22.301	54.091	-129.024	81.339	112.472	-108.524	-73.421	151.154
319	3.19	-96.532	59.299	104.404	-4.066	267.975	198.685	-30.77	280.82	185.984	-46.816	-153.158	-8.669	-46.816	31.938	-8.669	0	0	0	-137.327	-22.759	54.167	-129.48	81.133	112.217	-108.212	-73.368	151.516
320	3.2	-96.414	59.719	104.163	-5.723	269.305	198.147	-32.473	281.927	185.321	-46.816	-153.158	-8.669	-46.816	31.938	-8.669	0	0	0	-136.876	-22.886	54.073	-129.865	81.25	111.792	-107.775	-72.982	151.69
321	3.21	-96.674	60.094	103.97	-7.609	270.515	197.643	-34.414	282.925	184.725	-46.816	-153.158	-8.669	-46.816	31.938	-8.669	0	0	0	-136.354	-22.872	53.918	-130.155	81.494	111.311	-107.263	-72.468	151.793
322	3.22	-97.319	60.412	103.55	-9.718	271.618	196.835	-36.584	283.827	183.85	-46.816	-153.158	-8.669	-46.816	31.938	-8.669	0	0	0	-135.963	-22.975	53.784	-130.508	81.603	110.868	-106.918	-72.106	151.908
323	3.23	-98.016	60.657	102.926	-11.807	272.627	195.775	-38.729	284.641	182.725	-46.816	-153.158	-8.669	-46.816	31.938	-8.669	0	0	0	-135.743	-23.165	53.666	-130.975	81.594	110.478	-106.779	-71.886	152.017
324	3.24	-98.55	60.685	102.471	-13.738	273.377	194.954	-40.699	285.205	181.816	-46.816	-153.158	-8.669	-46.816	31.938	-8.669	0	0	0	-135.547	-23.375	53.555	-131.444	81.541	110.13	-106.675	-71.727	152.116
325	3.25	-98.858	60.462	102.413	-15.469	273.836	194.62	-42.447	285.488	181.36	-46.816	-153.158	-8.669	-46.816	31.938	-8.669	0	0	0	-135.212	-23.596	53.436	-131.774	81.471	109.773	-106.423	-71.579	152.201
326	3.26	-98.816	60.269	102.55	-16.899	274.333	194.477	-43.878	285.809	181.066	-46.816	-153.158	-8.669	-46.816	31.938	-8.669	0	0	0	-134.7	-23.727	53.302	-131.946	81.502	109.374	-105.979	-71.312	152.279
327	3.27	-98.486	60.468	102.5	-18.114	275.255	194.105	-45.092	286.546	180.536	-46.816	-153.158	-8.669	-46.816	31.938	-8.669	0	0	0	-134.171	-23.785	53.271	-132.126	81.613	109.056	-105.544	-70.949	152.476
328	3.28	-98.316	60.909	102.19	-19.466	276.39	193.484	-46.443	287.499	179.764	-46.816	-153.158	-8.669	-46.816	31.938	-8.669	0	0	0	-133.81	-23.989	53.455	-132.461	81.577	108.942	-105.346	-70.737	152.904
329	3.29	-98.563	61.051	101.93	-21.055	277.138	192.944	-48.023	288.087	179.078	-46.816	-153.158	-8.669	-46.816	31.938	-8.669	0	0	0	-133.58	-24.423	53.729	-132.873	81.311	108.908	-105.327	-70.763	153.428
330	3.3	-98.916	60.794	101.943	-22.572	277.421	192.656	-49.523	288.232	178.65	-46.816	-153.158	-8.669	-46.816	31.938	-8.669	0	0	0	-133.276	-24.902	53.882	-133.169	80.999	108.744	-105.207	-70.834	153.822
331	3.31	-99.107	60.501	102.057	-23.871	277.65	192.446	-50.812	288.324	178.317	-46.816	-153.158	-8.669	-46.816	31.938	-8.669	0	0	0	-132.788	-25.193	53.91	-133.293	80.867	108.461	-104.842	-70.717	154.071
332	3.32	-99.284	60.393	102.031	-25.167	278.044	192.138	-52.111	288.579	177.91	-46.816	-153.158	-8.669	-46.816	31.938	-8.669	0	0	0	-132.304	-25.241	53.92	-133.428	80.964	108.179	-104.434	-70.367	154.282
333	3.33	-99.561	60.503	101.864	-26.569	278.626	191.747	-53.526	289.022	177.439	-46.816	-153.158	-8.669	-46.816	31.938	-8.669	0	0	0	-132.124	-25.154	53.942	-133.812	81.185	107.923	-104.306	-69.906	154.486
334	3.34	-99.798	60.799	101.696	-27.903	279.383	191.343	-54.878	289.639	176.969	-46.816	-153.158	-8.669	-46.816	31.938	-8.669	0	0	0	-132.202	-25.095	54.013	-134.376	81.372	107.724	-104.43	-69.497	154.725
335	3.35	-99.922	61.04	101.649	-29.03	280.061	191.028	-56.024	290.185	176.597	-46.816	-153.158	-8.669	-46.816	31.938	-8.669	0	0	0	-132.107	-25.18	54.207	-134.735	81.409	107.655	-104.4	-69.248	155.083
336	3.36	-100.009	61.001	101.665	-29.978	280.393	190.812	-56.988	290.404	176.331	-46.816	-153.158	-8.669	-46.816	31.938	-8.669	0	0	0	-131.655	-25.335	54.473	-134.739	81.373	107.66	-104.029	-69.073	155.515
337	3.37	-100.064	60.93	101.464	-30.804	280.644	190.419	-57.83	290.554	175.9	-46.816	-153.158	-8.669	-46.816	31.938	-8.669	0	0	0	-131.21	-25.27	54.627	-134.75	81.543	107.574	-103.627	-68.695	155.815
338	3.38	-100.049	61.239	100.853	-31.578	281.285	189.597	-58.633	291.086	175.059	-46.816	-153.158	-8.669	-46.816	31.938	-8.669	0	0	0	-131.04	-24.744	54.499	-135.028	82.143	107.263	-103.404	-67.898	155.789
339	3.39	-100.036	61.793	100.016	-32.387	282.182	188.54	-59.478	291.868	173.989	-46.816	-153.158	-8.669	-46.816	31.938	-8.669	0	0	0	-130.951	-23.95	54.157	-135.329	82.982	106.797	-103.187	-66.891	155.502
340	3.4	-100.116	61.991	99.363	-33.214	282.674	187.724	-60.317	292.264	173.132	-46.816	-153.158	-8.669	-46.816	31.938	-8.669	0	0	0	-130.796	-23.452	53.884	-135.423	83.521	106.422	-102.929	-66.229	155.271
341	3.41	-100.217	61.641	98.981	-33.942	282.55	187.248	-61.01	292.079	172.553	-46.816	-153.158	-8.669	-46.816	31.938	-8.669	0	0	0	-130.674	-23.524	53.751	-135.392	83.509	106.159	-102.806	-66.16	155.197
342	3.42	-100.122	61.389	98.373	-34.481	282.519	186.56	-61.475	291.999	171.698	-46.816	-153.158	-8.669	-46.816	31.938	-8.669	0	0	0	-130.595	-23.816	53.425	-135.343	83.302	105.655	-102.817	-66.291	154.963
343	3.43	-99.755	61.908	97.204	-34.877	283.288	185.327	-61.784	292.712	170.272	-46.816	-153.158	-8.669	-46.816	31.938	-8.669	0	0	0	-130.523	-23.823	52.683	-135.348	83.396	104.699	-102.88	-66.099	154.341
344	3.44	-99.382	62.967	96.004	-35.306	284.56	184.179	-62.13	293.929	168.944	-46.816	-153.158	-8.669	-46.816	31.938	-8.669	0	0	0	-130.559	-23.434	51.787	-135.539	83.879	103.594	-103.067	-65.502	153.571
345	3.45	-99.409	63.847	95.417	-35.983	285.556	183.771	-62.722	294.896	168.369	-46.816	-153.158	-8.669	-46.816	31.938	-8.669	0	0	0	-130.753	-22.936	51.155	-135.927	84.469	102.752	-103.479	-64.8	153.082
346	3.46	-100.086	64.233	95.371	-37.145	286.054	183.791	-63.759	295.386	168.17	-46.816	-153.158	-8.669	-46.816	31.938	-8.669	0	0	0	-131.102	-22.704	51	-136.515	84.853	102.254	-104.385	-64.277	153.194
347	3.47	-101.37	64.121	95.571	-38.906	286.191	183.705	-65.31	295.518	167.726	-46.816	-153.158	-8.669	-46.816	31.938	-8.669	0	0	0	-131.727	-22.983	51.326	-137.498	84.856	101.944	-106.212	-64.059	154.027
348	3.48	-102.933	63.547	96.024	-41.063	285.98	183.659	-67.189	295.29	167.223	-46.816	-153.158	-8.669	-46.816	31.938	-8.669	0	0	0	-132.64	-23.733	51.914	-138.9	84.462	101.708	-108.769	-64.17	155.262
349	3.49	-104.358	62.845	96.646	-43.222	285.621	183.924	-69.107	294.894	167.089	-46.816	-153.158	-8.669	-46.816	31.938	-8.669	0	0	0	-133.533	-24.541	52.346	-140.34	83.935	101.451	-111.089	-64.427	156.226
350	3.5	-105.391	62.543	97.061	-45.111	285.602	184.211	-70.852	294.814	167.124	-46.816	-153.158	-8.669	-46.816	31.938	-8.669	0	0	0	-134.052	-24.845	52.307	-141.422	83.779	101.002	-112.457	-64.368	156.505
351	3.51	-106.072	62.826	97.024	-46.707	286.162	184.094	-72.375	295.291	166.854	-46.816	-153.158	-8.669	-46.816	31.938	-8.669	0	0	0	-134.181	-24.508	51.894	-142.121	84.193	100.328	-113.044	-63.76	156.288
352	3.52	-106.633	63.386	96.71	-48.165	287.014	183.637	-73.778	296.052	166.268	-46.816	-153.158	-8.669	-46.816	31.938	-8.669	0	0	0	-134.216	-24.02	51.521	-142.701	84.75	99.708	-113.473	-63.013	156.091
353	3.53	-107.208	63.777	96.503	-49.575	287.682	183.275	-75.119	296.639	165.763	-46.816	-153.158	-8.669	-46.816	31.938	-8.669	0	0	0	-134.376	-23.874	51.484	-143.357	84.972	99.409	-114.127	-62.618	156.243
354	3.54	-107.723	63.813	96.587	-50.85	287.959	183.236	-76.307	296.851	165.564	-46.816	-153.158	-8.669	-46.816	31.938	-8.669	0	0	0	-134.604	-24.065	51.693	-144.033	84.859	99.354	-114.92	-62.577	156.646
355	3.55	-108.115	63.661	96.798	-51.932	288.021	183.344	-77.299	296.856	165.515	-46.816	-153.158	-8.669	-46.816	31.938	-8.669	0	0	0	-134.753	-24.318	51.894	-144.596	84.679	99.302	-115.608	-62.612	157.026
356	3.56	-108.42	63.648	96.889	-52.874	288.197	183.357	-78.164	296.979	165.392	-46.816	-153.158	-8.669	-46.816	31.938	-8.669	0	0	0	-134.787	-24.393	51.975	-145.013	84.664	99.165	-116.095	-62.497	157.257
357	3.57	-108.673	63.943	96.802	-53.722	288.651	183.235	-78.949	297.385	165.159	-46.816	-153.158	-8.669	-46.816	31.938	-8.669	0	0	0	-134.752	-24.172	51.94	-145.334	84.928	98.951	-116.428	-62.115	157.344
358	3.58	-108.884	64.446	96.644	-54.448	289.286	183.063	-79.62	297.979	164.891	-46.816	-153.158	-8.669	-46.816	31.938	-8.669	0	0	0	-134.72	-23.692	51.797	-145.622	85.443	98.653	-116.685	-61.492	157.303
359	3.59	-109.021	64.954	96.526	-54.949	289.885	182.935	-80.069	298.553	164.68	-46.816	-153.158	-8.669	-46.816	31.938	-8.669	0	0	0	-134.726	-23.18	51.633	-145.881	85.99	98.349	-116.921	-60.851	157.224
360	3.6	-109.039	65.292	96.501	-55.122	290.257	182.92	-80.193	298.922	164.595	-46.816	-153.158	-8.669	-46.816	31.938	-8.669	0	0	0	-134.681	-22.903	51.59	-145.99	86.302	98.187	-117.097	-60.475	157.254
361	3.61	-108.948	65.372	96.61	-54.979	290.318	183.045	-80	299.001	164.661	-46.816	-153.158	-8.669	-46.816	31.938	-8.669	0	0	0	-134.517	-22.915	51.723	-145.885	86.331	98.208	-117.182	-60.411	157.455
362	3.62	-108.868	65.268	96.853	-54.68	290.163	183.283	-79.651	298.88	164.847	-46.816	-153.158	-8.669	-46.816	31.938	-8.669	0	0	0	-134.42	-23.075	51.997	-145.779	86.222	98.367	-117.349	-60.499	157.797
363	3.63	-108.959	65.212	97.082	-54.465	290.036	183.505	-79.392	298.793	165.03	-46.816	-153.158	-8.669	-46.816	31.938	-8.669	0	0	0	-134.565	-23.211	52.277	-145.904	86.132	98.542	-117.73	-60.571	158.138
364	3.64	-109.234	65.327	97.178	-54.402	290.062	183.618	-79.297	298.863	165.119	-46.816	-153.158	-8.669	-46.816	31.938	-8.669	0	0	0	-134.831	-23.244	52.404	-146.171	86.135	98.581	-118.154	-60.543	158.311
365	3.65	-109.527	65.403	97.307	-54.28	290.015	183.803	-79.144	298.87	165.289	-46.816	-153.158	-8.669	-46.816	31.938	-8.669	0	0	0	-135.054	-23.276	52.432	-146.4	86.14	98.521	-118.473	-60.503	158.38
366	3.66	-109.695	65.231	97.605	-53.889	289.661	184.215	-78.718	298.59	165.689	-46.816	-153.158	-8.669	-46.816	31.938	-8.669	0	0	0	-135.224	-23.421	52.558	-146.553	86.035	98.554	-118.734	-60.574	158.545
